G04 #@! TF.GenerationSoftware,KiCad,Pcbnew,8.0.8*
G04 #@! TF.CreationDate,2025-05-15T13:52:05+02:00*
G04 #@! TF.ProjectId,CdFdR,43644664-522e-46b6-9963-61645f706362,0.1*
G04 #@! TF.SameCoordinates,Original*
G04 #@! TF.FileFunction,Soldermask,Bot*
G04 #@! TF.FilePolarity,Negative*
%FSLAX46Y46*%
G04 Gerber Fmt 4.6, Leading zero omitted, Abs format (unit mm)*
G04 Created by KiCad (PCBNEW 8.0.8) date 2025-05-15 13:52:05*
%MOMM*%
%LPD*%
G01*
G04 APERTURE LIST*
G04 Aperture macros list*
%AMRoundRect*
0 Rectangle with rounded corners*
0 $1 Rounding radius*
0 $2 $3 $4 $5 $6 $7 $8 $9 X,Y pos of 4 corners*
0 Add a 4 corners polygon primitive as box body*
4,1,4,$2,$3,$4,$5,$6,$7,$8,$9,$2,$3,0*
0 Add four circle primitives for the rounded corners*
1,1,$1+$1,$2,$3*
1,1,$1+$1,$4,$5*
1,1,$1+$1,$6,$7*
1,1,$1+$1,$8,$9*
0 Add four rect primitives between the rounded corners*
20,1,$1+$1,$2,$3,$4,$5,0*
20,1,$1+$1,$4,$5,$6,$7,0*
20,1,$1+$1,$6,$7,$8,$9,0*
20,1,$1+$1,$8,$9,$2,$3,0*%
G04 Aperture macros list end*
%ADD10C,2.500000*%
%ADD11C,3.200000*%
%ADD12R,2.200000X2.200000*%
%ADD13O,2.200000X2.200000*%
%ADD14C,1.500000*%
%ADD15RoundRect,1.500000X1.500000X-1.500000X1.500000X1.500000X-1.500000X1.500000X-1.500000X-1.500000X0*%
%ADD16C,6.000000*%
%ADD17RoundRect,0.250000X-0.725000X0.600000X-0.725000X-0.600000X0.725000X-0.600000X0.725000X0.600000X0*%
%ADD18O,1.950000X1.700000*%
%ADD19RoundRect,0.250000X0.600000X0.725000X-0.600000X0.725000X-0.600000X-0.725000X0.600000X-0.725000X0*%
%ADD20O,1.700000X1.950000*%
%ADD21R,1.600000X1.600000*%
%ADD22C,1.600000*%
%ADD23O,1.600000X1.600000*%
%ADD24RoundRect,0.250000X-0.600000X-0.750000X0.600000X-0.750000X0.600000X0.750000X-0.600000X0.750000X0*%
%ADD25O,1.700000X2.000000*%
%ADD26R,2.400000X2.400000*%
%ADD27C,2.400000*%
%ADD28RoundRect,0.250000X-0.750000X0.600000X-0.750000X-0.600000X0.750000X-0.600000X0.750000X0.600000X0*%
%ADD29O,2.000000X1.700000*%
%ADD30RoundRect,0.250000X0.750000X-0.600000X0.750000X0.600000X-0.750000X0.600000X-0.750000X-0.600000X0*%
%ADD31R,2.000000X1.905000*%
%ADD32O,2.000000X1.905000*%
%ADD33R,1.905000X2.000000*%
%ADD34O,1.905000X2.000000*%
%ADD35R,1.500000X1.500000*%
%ADD36RoundRect,0.250000X0.600000X0.750000X-0.600000X0.750000X-0.600000X-0.750000X0.600000X-0.750000X0*%
G04 APERTURE END LIST*
D10*
X84180000Y-70500000D03*
X84180000Y-88500000D03*
X124820000Y-70500000D03*
X124820000Y-88500000D03*
D11*
X135500000Y-184000000D03*
D12*
X122555000Y-147690000D03*
D13*
X130175000Y-147690000D03*
D14*
X62000000Y-54380000D03*
X62000000Y-56920000D03*
X62000000Y-59460000D03*
X62000000Y-62000000D03*
X62000000Y-64540000D03*
X62000000Y-67080000D03*
X62000000Y-69620000D03*
X62000000Y-72160000D03*
X74700000Y-72160000D03*
X74700000Y-69620000D03*
X74700000Y-67080000D03*
X74700000Y-64540000D03*
X74700000Y-62000000D03*
X74700000Y-59460000D03*
X74700000Y-56920000D03*
X74700000Y-54380000D03*
D15*
X125000000Y-62500000D03*
D16*
X125000000Y-55300000D03*
D14*
X62000000Y-144050000D03*
X62000000Y-146590000D03*
X62000000Y-149130000D03*
X62000000Y-151670000D03*
X62000000Y-154210000D03*
X62000000Y-156750000D03*
X62000000Y-159290000D03*
X62000000Y-161830000D03*
X74700000Y-161830000D03*
X74700000Y-159290000D03*
X74700000Y-156750000D03*
X74700000Y-154210000D03*
X74700000Y-151670000D03*
X74700000Y-149130000D03*
X74700000Y-146590000D03*
X74700000Y-144050000D03*
D17*
X56500000Y-169000000D03*
D18*
X56500000Y-171500000D03*
X56500000Y-174000000D03*
X56500000Y-176500000D03*
D19*
X120500000Y-96500000D03*
D20*
X118000000Y-96500000D03*
X115500000Y-96500000D03*
X113000000Y-96500000D03*
D21*
X66840000Y-157710000D03*
D22*
X69340000Y-157710000D03*
X126500000Y-136380000D03*
D23*
X126500000Y-144000000D03*
D21*
X66840000Y-90280000D03*
D22*
X69340000Y-90280000D03*
D17*
X56500000Y-149210000D03*
D18*
X56500000Y-151710000D03*
X56500000Y-154210000D03*
X56500000Y-156710000D03*
D14*
X62000000Y-99160000D03*
X62000000Y-101700000D03*
X62000000Y-104240000D03*
X62000000Y-106780000D03*
X62000000Y-109320000D03*
X62000000Y-111860000D03*
X62000000Y-114400000D03*
X62000000Y-116940000D03*
X74700000Y-116940000D03*
X74700000Y-114400000D03*
X74700000Y-111860000D03*
X74700000Y-109320000D03*
X74700000Y-106780000D03*
X74700000Y-104240000D03*
X74700000Y-101700000D03*
X74700000Y-99160000D03*
D24*
X132000000Y-76500000D03*
D25*
X134500000Y-76500000D03*
D26*
X88500000Y-55500000D03*
D27*
X88500000Y-63000000D03*
D22*
X101000000Y-127070000D03*
D23*
X101000000Y-119450000D03*
D28*
X126270000Y-182000000D03*
D29*
X126270000Y-184500000D03*
D30*
X133000000Y-130000000D03*
D29*
X133000000Y-127500000D03*
D14*
X62000000Y-76580000D03*
X62000000Y-79120000D03*
X62000000Y-81660000D03*
X62000000Y-84200000D03*
X62000000Y-86740000D03*
X62000000Y-89280000D03*
X62000000Y-91820000D03*
X62000000Y-94360000D03*
X74700000Y-94360000D03*
X74700000Y-91820000D03*
X74700000Y-89280000D03*
X74700000Y-86740000D03*
X74700000Y-84200000D03*
X74700000Y-81660000D03*
X74700000Y-79120000D03*
X74700000Y-76580000D03*
D31*
X132000000Y-142460000D03*
D32*
X132000000Y-139920000D03*
X132000000Y-137380000D03*
D14*
X62000000Y-166510000D03*
X62000000Y-169050000D03*
X62000000Y-171590000D03*
X62000000Y-174130000D03*
X62000000Y-176670000D03*
X62000000Y-179210000D03*
X62000000Y-181750000D03*
X62000000Y-184290000D03*
X74700000Y-184290000D03*
X74700000Y-181750000D03*
X74700000Y-179210000D03*
X74700000Y-176670000D03*
X74700000Y-174130000D03*
X74700000Y-171590000D03*
X74700000Y-169050000D03*
X74700000Y-166510000D03*
D17*
X56500000Y-126550000D03*
D18*
X56500000Y-129050000D03*
X56500000Y-131550000D03*
X56500000Y-134050000D03*
D22*
X127000000Y-110690000D03*
D23*
X127000000Y-118310000D03*
D15*
X103000000Y-62500000D03*
D16*
X103000000Y-55300000D03*
D11*
X56000000Y-184000000D03*
D21*
X66840000Y-135250000D03*
D22*
X69340000Y-135250000D03*
D12*
X122690000Y-122000000D03*
D13*
X130310000Y-122000000D03*
D17*
X56500000Y-61500000D03*
D18*
X56500000Y-64000000D03*
X56500000Y-66500000D03*
X56500000Y-69000000D03*
D12*
X106770000Y-186120000D03*
D13*
X106770000Y-178500000D03*
D22*
X133500000Y-162000000D03*
D23*
X133500000Y-169620000D03*
D28*
X113270000Y-182000000D03*
D29*
X113270000Y-184500000D03*
D21*
X66840000Y-113360000D03*
D22*
X69340000Y-113360000D03*
X101000000Y-107880000D03*
D23*
X101000000Y-115500000D03*
D11*
X56000000Y-53000000D03*
D12*
X119770000Y-186120000D03*
D13*
X119770000Y-178500000D03*
D15*
X114000000Y-62500000D03*
D16*
X114000000Y-55300000D03*
D14*
X62000000Y-121550000D03*
X62000000Y-124090000D03*
X62000000Y-126630000D03*
X62000000Y-129170000D03*
X62000000Y-131710000D03*
X62000000Y-134250000D03*
X62000000Y-136790000D03*
X62000000Y-139330000D03*
X74700000Y-139330000D03*
X74700000Y-136790000D03*
X74700000Y-134250000D03*
X74700000Y-131710000D03*
X74700000Y-129170000D03*
X74700000Y-126630000D03*
X74700000Y-124090000D03*
X74700000Y-121550000D03*
D30*
X132530000Y-155690000D03*
D29*
X132530000Y-153190000D03*
D22*
X122310000Y-169000000D03*
D23*
X114690000Y-169000000D03*
D30*
X124030000Y-155690000D03*
D29*
X124030000Y-153190000D03*
D24*
X132000000Y-85000000D03*
D25*
X134500000Y-85000000D03*
D21*
X66840000Y-177760000D03*
D22*
X69340000Y-177760000D03*
D31*
X132500000Y-117000000D03*
D32*
X132500000Y-114460000D03*
X132500000Y-111920000D03*
D11*
X135500000Y-53000000D03*
D33*
X129150000Y-174445000D03*
D34*
X131690000Y-174445000D03*
X134230000Y-174445000D03*
D22*
X91500000Y-128190000D03*
D23*
X91500000Y-135810000D03*
D19*
X134500000Y-96500000D03*
D20*
X132000000Y-96500000D03*
X129500000Y-96500000D03*
X127000000Y-96500000D03*
D22*
X122310000Y-165500000D03*
D23*
X114690000Y-165500000D03*
D22*
X130000000Y-162000000D03*
D23*
X130000000Y-169620000D03*
D22*
X107500000Y-120380000D03*
D23*
X107500000Y-128000000D03*
D35*
X87600000Y-107600000D03*
D14*
X87600000Y-110140000D03*
X87600000Y-112680000D03*
X87600000Y-115220000D03*
X87600000Y-117760000D03*
X87600000Y-120300000D03*
X87600000Y-122840000D03*
X87600000Y-125380000D03*
X87600000Y-127920000D03*
X87600000Y-130460000D03*
X87600000Y-133000000D03*
X87600000Y-135540000D03*
X87600000Y-138080000D03*
X87600000Y-140620000D03*
X87600000Y-143160000D03*
X87600000Y-145700000D03*
X87600000Y-148240000D03*
X87600000Y-150780000D03*
X87600000Y-153320000D03*
X87600000Y-155860000D03*
X87600000Y-158400000D03*
X87600000Y-160940000D03*
X113000000Y-160940000D03*
X113000000Y-158400000D03*
X113000000Y-155860000D03*
X113000000Y-153320000D03*
X113000000Y-150780000D03*
X113000000Y-148240000D03*
X113000000Y-145700000D03*
X113000000Y-143160000D03*
X113000000Y-140620000D03*
X113000000Y-138080000D03*
X113000000Y-135540000D03*
X113000000Y-133000000D03*
X113000000Y-130460000D03*
X113000000Y-127920000D03*
X113000000Y-125380000D03*
X113000000Y-122840000D03*
X113000000Y-120300000D03*
X113000000Y-117760000D03*
X113000000Y-115220000D03*
X113000000Y-112680000D03*
X113000000Y-110140000D03*
D35*
X113000000Y-107600000D03*
D36*
X85500000Y-178000000D03*
D25*
X83000000Y-178000000D03*
D22*
X123000000Y-110880000D03*
D23*
X123000000Y-118500000D03*
D21*
X66840000Y-68080000D03*
D22*
X69340000Y-68080000D03*
D17*
X56500000Y-104360000D03*
D18*
X56500000Y-106860000D03*
X56500000Y-109360000D03*
X56500000Y-111860000D03*
D30*
X123500000Y-130000000D03*
D29*
X123500000Y-127500000D03*
D22*
X123000000Y-136380000D03*
D23*
X123000000Y-144000000D03*
D33*
X116190000Y-174500000D03*
D34*
X118730000Y-174500000D03*
X121270000Y-174500000D03*
D17*
X56500000Y-81740000D03*
D18*
X56500000Y-84240000D03*
X56500000Y-86740000D03*
X56500000Y-89240000D03*
M02*
