M48
; DRILL file {KiCad 8.0.8} date 2025-05-15T13:52:09+0200
; FORMAT={-:-/ absolute / metric / decimal}
; #@! TF.CreationDate,2025-05-15T13:52:09+02:00
; #@! TF.GenerationSoftware,Kicad,Pcbnew,8.0.8
; #@! TF.FileFunction,Plated,1,2,PTH
FMAT,2
METRIC
; #@! TA.AperFunction,Plated,PTH,ViaDrill
T1C0.800
; #@! TA.AperFunction,Plated,PTH,ComponentDrill
T2C0.800
; #@! TA.AperFunction,Plated,PTH,ComponentDrill
T3C0.900
; #@! TA.AperFunction,Plated,PTH,ComponentDrill
T4C0.950
; #@! TA.AperFunction,Plated,PTH,ComponentDrill
T5C1.000
; #@! TA.AperFunction,Plated,PTH,ComponentDrill
T6C1.100
; #@! TA.AperFunction,Plated,PTH,ComponentDrill
T7C1.200
; #@! TA.AperFunction,Plated,PTH,ComponentDrill
T8C4.500
%
G90
G05
T1
X78.0Y-109.0
X83.25Y-162.75
X90.75Y-105.25
X93.0Y-125.0
X93.004Y-151.0
X93.004Y-160.496
X118.5Y-104.0
T2
X62.0Y-54.38
X62.0Y-56.92
X62.0Y-59.46
X62.0Y-62.0
X62.0Y-64.54
X62.0Y-67.08
X62.0Y-69.62
X62.0Y-72.16
X62.0Y-76.58
X62.0Y-79.12
X62.0Y-81.66
X62.0Y-84.2
X62.0Y-86.74
X62.0Y-89.28
X62.0Y-91.82
X62.0Y-94.36
X62.0Y-99.16
X62.0Y-101.7
X62.0Y-104.24
X62.0Y-106.78
X62.0Y-109.32
X62.0Y-111.86
X62.0Y-114.4
X62.0Y-116.94
X62.0Y-121.55
X62.0Y-124.09
X62.0Y-126.63
X62.0Y-129.17
X62.0Y-131.71
X62.0Y-134.25
X62.0Y-136.79
X62.0Y-139.33
X62.0Y-144.05
X62.0Y-146.59
X62.0Y-149.13
X62.0Y-151.67
X62.0Y-154.21
X62.0Y-156.75
X62.0Y-159.29
X62.0Y-161.83
X62.0Y-166.51
X62.0Y-169.05
X62.0Y-171.59
X62.0Y-174.13
X62.0Y-176.67
X62.0Y-179.21
X62.0Y-181.75
X62.0Y-184.29
X66.84Y-68.08
X66.84Y-90.28
X66.84Y-113.36
X66.84Y-135.25
X66.84Y-157.71
X66.84Y-177.76
X69.34Y-68.08
X69.34Y-90.28
X69.34Y-113.36
X69.34Y-135.25
X69.34Y-157.71
X69.34Y-177.76
X74.7Y-54.38
X74.7Y-56.92
X74.7Y-59.46
X74.7Y-62.0
X74.7Y-64.54
X74.7Y-67.08
X74.7Y-69.62
X74.7Y-72.16
X74.7Y-76.58
X74.7Y-79.12
X74.7Y-81.66
X74.7Y-84.2
X74.7Y-86.74
X74.7Y-89.28
X74.7Y-91.82
X74.7Y-94.36
X74.7Y-99.16
X74.7Y-101.7
X74.7Y-104.24
X74.7Y-106.78
X74.7Y-109.32
X74.7Y-111.86
X74.7Y-114.4
X74.7Y-116.94
X74.7Y-121.55
X74.7Y-124.09
X74.7Y-126.63
X74.7Y-129.17
X74.7Y-131.71
X74.7Y-134.25
X74.7Y-136.79
X74.7Y-139.33
X74.7Y-144.05
X74.7Y-146.59
X74.7Y-149.13
X74.7Y-151.67
X74.7Y-154.21
X74.7Y-156.75
X74.7Y-159.29
X74.7Y-161.83
X74.7Y-166.51
X74.7Y-169.05
X74.7Y-171.59
X74.7Y-174.13
X74.7Y-176.67
X74.7Y-179.21
X74.7Y-181.75
X74.7Y-184.29
X91.5Y-128.19
X91.5Y-135.81
X101.0Y-107.88
X101.0Y-115.5
X101.0Y-119.45
X101.0Y-127.07
X107.5Y-120.38
X107.5Y-128.0
X114.69Y-165.5
X114.69Y-169.0
X122.31Y-165.5
X122.31Y-169.0
X123.0Y-110.88
X123.0Y-118.5
X123.0Y-136.38
X123.0Y-144.0
X126.5Y-136.38
X126.5Y-144.0
X127.0Y-110.69
X127.0Y-118.31
X130.0Y-162.0
X130.0Y-169.62
X133.5Y-162.0
X133.5Y-169.62
T3
X84.18Y-70.5
X84.18Y-88.5
X87.6Y-107.6
X87.6Y-110.14
X87.6Y-112.68
X87.6Y-115.22
X87.6Y-117.76
X87.6Y-120.3
X87.6Y-122.84
X87.6Y-125.38
X87.6Y-127.92
X87.6Y-130.46
X87.6Y-133.0
X87.6Y-135.54
X87.6Y-138.08
X87.6Y-140.62
X87.6Y-143.16
X87.6Y-145.7
X87.6Y-148.24
X87.6Y-150.78
X87.6Y-153.32
X87.6Y-155.86
X87.6Y-158.4
X87.6Y-160.94
X113.0Y-107.6
X113.0Y-110.14
X113.0Y-112.68
X113.0Y-115.22
X113.0Y-117.76
X113.0Y-120.3
X113.0Y-122.84
X113.0Y-125.38
X113.0Y-127.92
X113.0Y-130.46
X113.0Y-133.0
X113.0Y-135.54
X113.0Y-138.08
X113.0Y-140.62
X113.0Y-143.16
X113.0Y-145.7
X113.0Y-148.24
X113.0Y-150.78
X113.0Y-153.32
X113.0Y-155.86
X113.0Y-158.4
X113.0Y-160.94
X124.82Y-70.5
X124.82Y-88.5
T4
X56.5Y-61.5
X56.5Y-64.0
X56.5Y-66.5
X56.5Y-69.0
X56.5Y-81.74
X56.5Y-84.24
X56.5Y-86.74
X56.5Y-89.24
X56.5Y-104.36
X56.5Y-106.86
X56.5Y-109.36
X56.5Y-111.86
X56.5Y-126.55
X56.5Y-129.05
X56.5Y-131.55
X56.5Y-134.05
X56.5Y-149.21
X56.5Y-151.71
X56.5Y-154.21
X56.5Y-156.71
X56.5Y-169.0
X56.5Y-171.5
X56.5Y-174.0
X56.5Y-176.5
X113.0Y-96.5
X115.5Y-96.5
X118.0Y-96.5
X120.5Y-96.5
X127.0Y-96.5
X129.5Y-96.5
X132.0Y-96.5
X134.5Y-96.5
T5
X83.0Y-178.0
X85.5Y-178.0
X113.27Y-182.0
X113.27Y-184.5
X123.5Y-127.5
X123.5Y-130.0
X124.03Y-153.19
X124.03Y-155.69
X126.27Y-182.0
X126.27Y-184.5
X132.0Y-76.5
X132.0Y-85.0
X132.53Y-153.19
X132.53Y-155.69
X133.0Y-127.5
X133.0Y-130.0
X134.5Y-76.5
X134.5Y-85.0
T6
X106.77Y-178.5
X106.77Y-186.12
X116.19Y-174.5
X118.73Y-174.5
X119.77Y-178.5
X119.77Y-186.12
X121.27Y-174.5
X122.555Y-147.69
X122.69Y-122.0
X129.15Y-174.445
X130.175Y-147.69
X130.31Y-122.0
X131.69Y-174.445
X132.0Y-137.38
X132.0Y-139.92
X132.0Y-142.46
X132.5Y-111.92
X132.5Y-114.46
X132.5Y-117.0
X134.23Y-174.445
T7
X88.5Y-55.5
X88.5Y-63.0
T8
X103.0Y-55.3
X103.0Y-62.5
X114.0Y-55.3
X114.0Y-62.5
X125.0Y-55.3
X125.0Y-62.5
M30
