%TF.GenerationSoftware,KiCad,Pcbnew,8.0.8*%
%TF.CreationDate,2025-05-15T13:52:13+02:00*%
%TF.ProjectId,CdFdR,43644664-522e-46b6-9963-61645f706362,0.1*%
%TF.SameCoordinates,Original*%
%TF.FileFunction,Drillmap*%
%TF.FilePolarity,Positive*%
%FSLAX45Y45*%
G04 Gerber Fmt 4.5, Leading zero omitted, Abs format (unit mm)*
G04 Created by KiCad (PCBNEW 8.0.8) date 2025-05-15 13:52:13*
%MOMM*%
%LPD*%
G01*
G04 APERTURE LIST*
%ADD10C,0.050000*%
%ADD11C,0.200000*%
%ADD12C,0.320000*%
G04 APERTURE END LIST*
D10*
X5000000Y-4700000D02*
X14150000Y-4700000D01*
X14150000Y-19000000D01*
X5000000Y-19000000D01*
X5000000Y-4700000D01*
D11*
D12*
X5440000Y-5140000D02*
X5760000Y-5460000D01*
X5760000Y-5140000D02*
X5440000Y-5460000D01*
X5440000Y-18240000D02*
X5760000Y-18560000D01*
X5760000Y-18240000D02*
X5440000Y-18560000D01*
X13390000Y-5140000D02*
X13710000Y-5460000D01*
X13710000Y-5140000D02*
X13390000Y-5460000D01*
X13390000Y-18240000D02*
X13710000Y-18560000D01*
X13710000Y-18240000D02*
X13390000Y-18560000D01*
D11*
X5258277Y-19313984D02*
X5258277Y-19113984D01*
X5258277Y-19113984D02*
X5305896Y-19113984D01*
X5305896Y-19113984D02*
X5334467Y-19123508D01*
X5334467Y-19123508D02*
X5353515Y-19142555D01*
X5353515Y-19142555D02*
X5363039Y-19161603D01*
X5363039Y-19161603D02*
X5372563Y-19199698D01*
X5372563Y-19199698D02*
X5372563Y-19228270D01*
X5372563Y-19228270D02*
X5363039Y-19266365D01*
X5363039Y-19266365D02*
X5353515Y-19285412D01*
X5353515Y-19285412D02*
X5334467Y-19304460D01*
X5334467Y-19304460D02*
X5305896Y-19313984D01*
X5305896Y-19313984D02*
X5258277Y-19313984D01*
X5458277Y-19313984D02*
X5458277Y-19180650D01*
X5458277Y-19218746D02*
X5467801Y-19199698D01*
X5467801Y-19199698D02*
X5477324Y-19190174D01*
X5477324Y-19190174D02*
X5496372Y-19180650D01*
X5496372Y-19180650D02*
X5515420Y-19180650D01*
X5582086Y-19313984D02*
X5582086Y-19180650D01*
X5582086Y-19113984D02*
X5572563Y-19123508D01*
X5572563Y-19123508D02*
X5582086Y-19133031D01*
X5582086Y-19133031D02*
X5591610Y-19123508D01*
X5591610Y-19123508D02*
X5582086Y-19113984D01*
X5582086Y-19113984D02*
X5582086Y-19133031D01*
X5705896Y-19313984D02*
X5686848Y-19304460D01*
X5686848Y-19304460D02*
X5677324Y-19285412D01*
X5677324Y-19285412D02*
X5677324Y-19113984D01*
X5810658Y-19313984D02*
X5791610Y-19304460D01*
X5791610Y-19304460D02*
X5782086Y-19285412D01*
X5782086Y-19285412D02*
X5782086Y-19113984D01*
X6039229Y-19313984D02*
X6039229Y-19113984D01*
X6039229Y-19113984D02*
X6105896Y-19256841D01*
X6105896Y-19256841D02*
X6172562Y-19113984D01*
X6172562Y-19113984D02*
X6172562Y-19313984D01*
X6353515Y-19313984D02*
X6353515Y-19209222D01*
X6353515Y-19209222D02*
X6343991Y-19190174D01*
X6343991Y-19190174D02*
X6324943Y-19180650D01*
X6324943Y-19180650D02*
X6286848Y-19180650D01*
X6286848Y-19180650D02*
X6267801Y-19190174D01*
X6353515Y-19304460D02*
X6334467Y-19313984D01*
X6334467Y-19313984D02*
X6286848Y-19313984D01*
X6286848Y-19313984D02*
X6267801Y-19304460D01*
X6267801Y-19304460D02*
X6258277Y-19285412D01*
X6258277Y-19285412D02*
X6258277Y-19266365D01*
X6258277Y-19266365D02*
X6267801Y-19247317D01*
X6267801Y-19247317D02*
X6286848Y-19237793D01*
X6286848Y-19237793D02*
X6334467Y-19237793D01*
X6334467Y-19237793D02*
X6353515Y-19228270D01*
X6448753Y-19180650D02*
X6448753Y-19380650D01*
X6448753Y-19190174D02*
X6467801Y-19180650D01*
X6467801Y-19180650D02*
X6505896Y-19180650D01*
X6505896Y-19180650D02*
X6524943Y-19190174D01*
X6524943Y-19190174D02*
X6534467Y-19199698D01*
X6534467Y-19199698D02*
X6543991Y-19218746D01*
X6543991Y-19218746D02*
X6543991Y-19275889D01*
X6543991Y-19275889D02*
X6534467Y-19294936D01*
X6534467Y-19294936D02*
X6524943Y-19304460D01*
X6524943Y-19304460D02*
X6505896Y-19313984D01*
X6505896Y-19313984D02*
X6467801Y-19313984D01*
X6467801Y-19313984D02*
X6448753Y-19304460D01*
X6629705Y-19294936D02*
X6639229Y-19304460D01*
X6639229Y-19304460D02*
X6629705Y-19313984D01*
X6629705Y-19313984D02*
X6620182Y-19304460D01*
X6620182Y-19304460D02*
X6629705Y-19294936D01*
X6629705Y-19294936D02*
X6629705Y-19313984D01*
X6629705Y-19190174D02*
X6639229Y-19199698D01*
X6639229Y-19199698D02*
X6629705Y-19209222D01*
X6629705Y-19209222D02*
X6620182Y-19199698D01*
X6620182Y-19199698D02*
X6629705Y-19190174D01*
X6629705Y-19190174D02*
X6629705Y-19209222D01*
X4797500Y-19542500D02*
X4997500Y-19742500D01*
X4997500Y-19542500D02*
X4797500Y-19742500D01*
X5239229Y-19533984D02*
X5363039Y-19533984D01*
X5363039Y-19533984D02*
X5296372Y-19610174D01*
X5296372Y-19610174D02*
X5324944Y-19610174D01*
X5324944Y-19610174D02*
X5343991Y-19619698D01*
X5343991Y-19619698D02*
X5353515Y-19629222D01*
X5353515Y-19629222D02*
X5363039Y-19648270D01*
X5363039Y-19648270D02*
X5363039Y-19695889D01*
X5363039Y-19695889D02*
X5353515Y-19714936D01*
X5353515Y-19714936D02*
X5343991Y-19724460D01*
X5343991Y-19724460D02*
X5324944Y-19733984D01*
X5324944Y-19733984D02*
X5267801Y-19733984D01*
X5267801Y-19733984D02*
X5248753Y-19724460D01*
X5248753Y-19724460D02*
X5239229Y-19714936D01*
X5448753Y-19714936D02*
X5458277Y-19724460D01*
X5458277Y-19724460D02*
X5448753Y-19733984D01*
X5448753Y-19733984D02*
X5439229Y-19724460D01*
X5439229Y-19724460D02*
X5448753Y-19714936D01*
X5448753Y-19714936D02*
X5448753Y-19733984D01*
X5534467Y-19553031D02*
X5543991Y-19543508D01*
X5543991Y-19543508D02*
X5563039Y-19533984D01*
X5563039Y-19533984D02*
X5610658Y-19533984D01*
X5610658Y-19533984D02*
X5629705Y-19543508D01*
X5629705Y-19543508D02*
X5639229Y-19553031D01*
X5639229Y-19553031D02*
X5648753Y-19572079D01*
X5648753Y-19572079D02*
X5648753Y-19591127D01*
X5648753Y-19591127D02*
X5639229Y-19619698D01*
X5639229Y-19619698D02*
X5524944Y-19733984D01*
X5524944Y-19733984D02*
X5648753Y-19733984D01*
X5772562Y-19533984D02*
X5791610Y-19533984D01*
X5791610Y-19533984D02*
X5810658Y-19543508D01*
X5810658Y-19543508D02*
X5820182Y-19553031D01*
X5820182Y-19553031D02*
X5829705Y-19572079D01*
X5829705Y-19572079D02*
X5839229Y-19610174D01*
X5839229Y-19610174D02*
X5839229Y-19657793D01*
X5839229Y-19657793D02*
X5829705Y-19695889D01*
X5829705Y-19695889D02*
X5820182Y-19714936D01*
X5820182Y-19714936D02*
X5810658Y-19724460D01*
X5810658Y-19724460D02*
X5791610Y-19733984D01*
X5791610Y-19733984D02*
X5772562Y-19733984D01*
X5772562Y-19733984D02*
X5753515Y-19724460D01*
X5753515Y-19724460D02*
X5743991Y-19714936D01*
X5743991Y-19714936D02*
X5734467Y-19695889D01*
X5734467Y-19695889D02*
X5724943Y-19657793D01*
X5724943Y-19657793D02*
X5724943Y-19610174D01*
X5724943Y-19610174D02*
X5734467Y-19572079D01*
X5734467Y-19572079D02*
X5743991Y-19553031D01*
X5743991Y-19553031D02*
X5753515Y-19543508D01*
X5753515Y-19543508D02*
X5772562Y-19533984D01*
X5963039Y-19533984D02*
X5982086Y-19533984D01*
X5982086Y-19533984D02*
X6001134Y-19543508D01*
X6001134Y-19543508D02*
X6010658Y-19553031D01*
X6010658Y-19553031D02*
X6020182Y-19572079D01*
X6020182Y-19572079D02*
X6029705Y-19610174D01*
X6029705Y-19610174D02*
X6029705Y-19657793D01*
X6029705Y-19657793D02*
X6020182Y-19695889D01*
X6020182Y-19695889D02*
X6010658Y-19714936D01*
X6010658Y-19714936D02*
X6001134Y-19724460D01*
X6001134Y-19724460D02*
X5982086Y-19733984D01*
X5982086Y-19733984D02*
X5963039Y-19733984D01*
X5963039Y-19733984D02*
X5943991Y-19724460D01*
X5943991Y-19724460D02*
X5934467Y-19714936D01*
X5934467Y-19714936D02*
X5924943Y-19695889D01*
X5924943Y-19695889D02*
X5915420Y-19657793D01*
X5915420Y-19657793D02*
X5915420Y-19610174D01*
X5915420Y-19610174D02*
X5924943Y-19572079D01*
X5924943Y-19572079D02*
X5934467Y-19553031D01*
X5934467Y-19553031D02*
X5943991Y-19543508D01*
X5943991Y-19543508D02*
X5963039Y-19533984D01*
X6115420Y-19733984D02*
X6115420Y-19600650D01*
X6115420Y-19619698D02*
X6124943Y-19610174D01*
X6124943Y-19610174D02*
X6143991Y-19600650D01*
X6143991Y-19600650D02*
X6172563Y-19600650D01*
X6172563Y-19600650D02*
X6191610Y-19610174D01*
X6191610Y-19610174D02*
X6201134Y-19629222D01*
X6201134Y-19629222D02*
X6201134Y-19733984D01*
X6201134Y-19629222D02*
X6210658Y-19610174D01*
X6210658Y-19610174D02*
X6229705Y-19600650D01*
X6229705Y-19600650D02*
X6258277Y-19600650D01*
X6258277Y-19600650D02*
X6277324Y-19610174D01*
X6277324Y-19610174D02*
X6286848Y-19629222D01*
X6286848Y-19629222D02*
X6286848Y-19733984D01*
X6382086Y-19733984D02*
X6382086Y-19600650D01*
X6382086Y-19619698D02*
X6391610Y-19610174D01*
X6391610Y-19610174D02*
X6410658Y-19600650D01*
X6410658Y-19600650D02*
X6439229Y-19600650D01*
X6439229Y-19600650D02*
X6458277Y-19610174D01*
X6458277Y-19610174D02*
X6467801Y-19629222D01*
X6467801Y-19629222D02*
X6467801Y-19733984D01*
X6467801Y-19629222D02*
X6477324Y-19610174D01*
X6477324Y-19610174D02*
X6496372Y-19600650D01*
X6496372Y-19600650D02*
X6524943Y-19600650D01*
X6524943Y-19600650D02*
X6543991Y-19610174D01*
X6543991Y-19610174D02*
X6553515Y-19629222D01*
X6553515Y-19629222D02*
X6553515Y-19733984D01*
X6943991Y-19524460D02*
X6772563Y-19781603D01*
X7201134Y-19533984D02*
X7220182Y-19533984D01*
X7220182Y-19533984D02*
X7239229Y-19543508D01*
X7239229Y-19543508D02*
X7248753Y-19553031D01*
X7248753Y-19553031D02*
X7258277Y-19572079D01*
X7258277Y-19572079D02*
X7267801Y-19610174D01*
X7267801Y-19610174D02*
X7267801Y-19657793D01*
X7267801Y-19657793D02*
X7258277Y-19695889D01*
X7258277Y-19695889D02*
X7248753Y-19714936D01*
X7248753Y-19714936D02*
X7239229Y-19724460D01*
X7239229Y-19724460D02*
X7220182Y-19733984D01*
X7220182Y-19733984D02*
X7201134Y-19733984D01*
X7201134Y-19733984D02*
X7182086Y-19724460D01*
X7182086Y-19724460D02*
X7172563Y-19714936D01*
X7172563Y-19714936D02*
X7163039Y-19695889D01*
X7163039Y-19695889D02*
X7153515Y-19657793D01*
X7153515Y-19657793D02*
X7153515Y-19610174D01*
X7153515Y-19610174D02*
X7163039Y-19572079D01*
X7163039Y-19572079D02*
X7172563Y-19553031D01*
X7172563Y-19553031D02*
X7182086Y-19543508D01*
X7182086Y-19543508D02*
X7201134Y-19533984D01*
X7353515Y-19714936D02*
X7363039Y-19724460D01*
X7363039Y-19724460D02*
X7353515Y-19733984D01*
X7353515Y-19733984D02*
X7343991Y-19724460D01*
X7343991Y-19724460D02*
X7353515Y-19714936D01*
X7353515Y-19714936D02*
X7353515Y-19733984D01*
X7553515Y-19733984D02*
X7439229Y-19733984D01*
X7496372Y-19733984D02*
X7496372Y-19533984D01*
X7496372Y-19533984D02*
X7477325Y-19562555D01*
X7477325Y-19562555D02*
X7458277Y-19581603D01*
X7458277Y-19581603D02*
X7439229Y-19591127D01*
X7629706Y-19553031D02*
X7639229Y-19543508D01*
X7639229Y-19543508D02*
X7658277Y-19533984D01*
X7658277Y-19533984D02*
X7705896Y-19533984D01*
X7705896Y-19533984D02*
X7724944Y-19543508D01*
X7724944Y-19543508D02*
X7734467Y-19553031D01*
X7734467Y-19553031D02*
X7743991Y-19572079D01*
X7743991Y-19572079D02*
X7743991Y-19591127D01*
X7743991Y-19591127D02*
X7734467Y-19619698D01*
X7734467Y-19619698D02*
X7620182Y-19733984D01*
X7620182Y-19733984D02*
X7743991Y-19733984D01*
X7915420Y-19533984D02*
X7877325Y-19533984D01*
X7877325Y-19533984D02*
X7858277Y-19543508D01*
X7858277Y-19543508D02*
X7848753Y-19553031D01*
X7848753Y-19553031D02*
X7829706Y-19581603D01*
X7829706Y-19581603D02*
X7820182Y-19619698D01*
X7820182Y-19619698D02*
X7820182Y-19695889D01*
X7820182Y-19695889D02*
X7829706Y-19714936D01*
X7829706Y-19714936D02*
X7839229Y-19724460D01*
X7839229Y-19724460D02*
X7858277Y-19733984D01*
X7858277Y-19733984D02*
X7896372Y-19733984D01*
X7896372Y-19733984D02*
X7915420Y-19724460D01*
X7915420Y-19724460D02*
X7924944Y-19714936D01*
X7924944Y-19714936D02*
X7934467Y-19695889D01*
X7934467Y-19695889D02*
X7934467Y-19648270D01*
X7934467Y-19648270D02*
X7924944Y-19629222D01*
X7924944Y-19629222D02*
X7915420Y-19619698D01*
X7915420Y-19619698D02*
X7896372Y-19610174D01*
X7896372Y-19610174D02*
X7858277Y-19610174D01*
X7858277Y-19610174D02*
X7839229Y-19619698D01*
X7839229Y-19619698D02*
X7829706Y-19629222D01*
X7829706Y-19629222D02*
X7820182Y-19648270D01*
X8058277Y-19533984D02*
X8077325Y-19533984D01*
X8077325Y-19533984D02*
X8096372Y-19543508D01*
X8096372Y-19543508D02*
X8105896Y-19553031D01*
X8105896Y-19553031D02*
X8115420Y-19572079D01*
X8115420Y-19572079D02*
X8124944Y-19610174D01*
X8124944Y-19610174D02*
X8124944Y-19657793D01*
X8124944Y-19657793D02*
X8115420Y-19695889D01*
X8115420Y-19695889D02*
X8105896Y-19714936D01*
X8105896Y-19714936D02*
X8096372Y-19724460D01*
X8096372Y-19724460D02*
X8077325Y-19733984D01*
X8077325Y-19733984D02*
X8058277Y-19733984D01*
X8058277Y-19733984D02*
X8039229Y-19724460D01*
X8039229Y-19724460D02*
X8029706Y-19714936D01*
X8029706Y-19714936D02*
X8020182Y-19695889D01*
X8020182Y-19695889D02*
X8010658Y-19657793D01*
X8010658Y-19657793D02*
X8010658Y-19610174D01*
X8010658Y-19610174D02*
X8020182Y-19572079D01*
X8020182Y-19572079D02*
X8029706Y-19553031D01*
X8029706Y-19553031D02*
X8039229Y-19543508D01*
X8039229Y-19543508D02*
X8058277Y-19533984D01*
X8201134Y-19533984D02*
X8201134Y-19572079D01*
X8277325Y-19533984D02*
X8277325Y-19572079D01*
X8572563Y-19810174D02*
X8563039Y-19800650D01*
X8563039Y-19800650D02*
X8543991Y-19772079D01*
X8543991Y-19772079D02*
X8534468Y-19753031D01*
X8534468Y-19753031D02*
X8524944Y-19724460D01*
X8524944Y-19724460D02*
X8515420Y-19676841D01*
X8515420Y-19676841D02*
X8515420Y-19638746D01*
X8515420Y-19638746D02*
X8524944Y-19591127D01*
X8524944Y-19591127D02*
X8534468Y-19562555D01*
X8534468Y-19562555D02*
X8543991Y-19543508D01*
X8543991Y-19543508D02*
X8563039Y-19514936D01*
X8563039Y-19514936D02*
X8572563Y-19505412D01*
X8734468Y-19600650D02*
X8734468Y-19733984D01*
X8686849Y-19524460D02*
X8639230Y-19667317D01*
X8639230Y-19667317D02*
X8763039Y-19667317D01*
X8991611Y-19733984D02*
X8991611Y-19533984D01*
X9077325Y-19733984D02*
X9077325Y-19629222D01*
X9077325Y-19629222D02*
X9067801Y-19610174D01*
X9067801Y-19610174D02*
X9048753Y-19600650D01*
X9048753Y-19600650D02*
X9020182Y-19600650D01*
X9020182Y-19600650D02*
X9001134Y-19610174D01*
X9001134Y-19610174D02*
X8991611Y-19619698D01*
X9201134Y-19733984D02*
X9182087Y-19724460D01*
X9182087Y-19724460D02*
X9172563Y-19714936D01*
X9172563Y-19714936D02*
X9163039Y-19695889D01*
X9163039Y-19695889D02*
X9163039Y-19638746D01*
X9163039Y-19638746D02*
X9172563Y-19619698D01*
X9172563Y-19619698D02*
X9182087Y-19610174D01*
X9182087Y-19610174D02*
X9201134Y-19600650D01*
X9201134Y-19600650D02*
X9229706Y-19600650D01*
X9229706Y-19600650D02*
X9248753Y-19610174D01*
X9248753Y-19610174D02*
X9258277Y-19619698D01*
X9258277Y-19619698D02*
X9267801Y-19638746D01*
X9267801Y-19638746D02*
X9267801Y-19695889D01*
X9267801Y-19695889D02*
X9258277Y-19714936D01*
X9258277Y-19714936D02*
X9248753Y-19724460D01*
X9248753Y-19724460D02*
X9229706Y-19733984D01*
X9229706Y-19733984D02*
X9201134Y-19733984D01*
X9382087Y-19733984D02*
X9363039Y-19724460D01*
X9363039Y-19724460D02*
X9353515Y-19705412D01*
X9353515Y-19705412D02*
X9353515Y-19533984D01*
X9534468Y-19724460D02*
X9515420Y-19733984D01*
X9515420Y-19733984D02*
X9477325Y-19733984D01*
X9477325Y-19733984D02*
X9458277Y-19724460D01*
X9458277Y-19724460D02*
X9448753Y-19705412D01*
X9448753Y-19705412D02*
X9448753Y-19629222D01*
X9448753Y-19629222D02*
X9458277Y-19610174D01*
X9458277Y-19610174D02*
X9477325Y-19600650D01*
X9477325Y-19600650D02*
X9515420Y-19600650D01*
X9515420Y-19600650D02*
X9534468Y-19610174D01*
X9534468Y-19610174D02*
X9543992Y-19629222D01*
X9543992Y-19629222D02*
X9543992Y-19648270D01*
X9543992Y-19648270D02*
X9448753Y-19667317D01*
X9620182Y-19724460D02*
X9639230Y-19733984D01*
X9639230Y-19733984D02*
X9677325Y-19733984D01*
X9677325Y-19733984D02*
X9696373Y-19724460D01*
X9696373Y-19724460D02*
X9705896Y-19705412D01*
X9705896Y-19705412D02*
X9705896Y-19695889D01*
X9705896Y-19695889D02*
X9696373Y-19676841D01*
X9696373Y-19676841D02*
X9677325Y-19667317D01*
X9677325Y-19667317D02*
X9648753Y-19667317D01*
X9648753Y-19667317D02*
X9629706Y-19657793D01*
X9629706Y-19657793D02*
X9620182Y-19638746D01*
X9620182Y-19638746D02*
X9620182Y-19629222D01*
X9620182Y-19629222D02*
X9629706Y-19610174D01*
X9629706Y-19610174D02*
X9648753Y-19600650D01*
X9648753Y-19600650D02*
X9677325Y-19600650D01*
X9677325Y-19600650D02*
X9696373Y-19610174D01*
X9772563Y-19810174D02*
X9782087Y-19800650D01*
X9782087Y-19800650D02*
X9801134Y-19772079D01*
X9801134Y-19772079D02*
X9810658Y-19753031D01*
X9810658Y-19753031D02*
X9820182Y-19724460D01*
X9820182Y-19724460D02*
X9829706Y-19676841D01*
X9829706Y-19676841D02*
X9829706Y-19638746D01*
X9829706Y-19638746D02*
X9820182Y-19591127D01*
X9820182Y-19591127D02*
X9810658Y-19562555D01*
X9810658Y-19562555D02*
X9801134Y-19543508D01*
X9801134Y-19543508D02*
X9782087Y-19514936D01*
X9782087Y-19514936D02*
X9772563Y-19505412D01*
X10134468Y-19810174D02*
X10124944Y-19800650D01*
X10124944Y-19800650D02*
X10105896Y-19772079D01*
X10105896Y-19772079D02*
X10096373Y-19753031D01*
X10096373Y-19753031D02*
X10086849Y-19724460D01*
X10086849Y-19724460D02*
X10077325Y-19676841D01*
X10077325Y-19676841D02*
X10077325Y-19638746D01*
X10077325Y-19638746D02*
X10086849Y-19591127D01*
X10086849Y-19591127D02*
X10096373Y-19562555D01*
X10096373Y-19562555D02*
X10105896Y-19543508D01*
X10105896Y-19543508D02*
X10124944Y-19514936D01*
X10124944Y-19514936D02*
X10134468Y-19505412D01*
X10210658Y-19600650D02*
X10210658Y-19733984D01*
X10210658Y-19619698D02*
X10220182Y-19610174D01*
X10220182Y-19610174D02*
X10239230Y-19600650D01*
X10239230Y-19600650D02*
X10267801Y-19600650D01*
X10267801Y-19600650D02*
X10286849Y-19610174D01*
X10286849Y-19610174D02*
X10296373Y-19629222D01*
X10296373Y-19629222D02*
X10296373Y-19733984D01*
X10420182Y-19733984D02*
X10401134Y-19724460D01*
X10401134Y-19724460D02*
X10391611Y-19714936D01*
X10391611Y-19714936D02*
X10382087Y-19695889D01*
X10382087Y-19695889D02*
X10382087Y-19638746D01*
X10382087Y-19638746D02*
X10391611Y-19619698D01*
X10391611Y-19619698D02*
X10401134Y-19610174D01*
X10401134Y-19610174D02*
X10420182Y-19600650D01*
X10420182Y-19600650D02*
X10448754Y-19600650D01*
X10448754Y-19600650D02*
X10467801Y-19610174D01*
X10467801Y-19610174D02*
X10477325Y-19619698D01*
X10477325Y-19619698D02*
X10486849Y-19638746D01*
X10486849Y-19638746D02*
X10486849Y-19695889D01*
X10486849Y-19695889D02*
X10477325Y-19714936D01*
X10477325Y-19714936D02*
X10467801Y-19724460D01*
X10467801Y-19724460D02*
X10448754Y-19733984D01*
X10448754Y-19733984D02*
X10420182Y-19733984D01*
X10543992Y-19600650D02*
X10620182Y-19600650D01*
X10572563Y-19533984D02*
X10572563Y-19705412D01*
X10572563Y-19705412D02*
X10582087Y-19724460D01*
X10582087Y-19724460D02*
X10601134Y-19733984D01*
X10601134Y-19733984D02*
X10620182Y-19733984D01*
X10839230Y-19600650D02*
X10839230Y-19800650D01*
X10839230Y-19610174D02*
X10858277Y-19600650D01*
X10858277Y-19600650D02*
X10896373Y-19600650D01*
X10896373Y-19600650D02*
X10915420Y-19610174D01*
X10915420Y-19610174D02*
X10924944Y-19619698D01*
X10924944Y-19619698D02*
X10934468Y-19638746D01*
X10934468Y-19638746D02*
X10934468Y-19695889D01*
X10934468Y-19695889D02*
X10924944Y-19714936D01*
X10924944Y-19714936D02*
X10915420Y-19724460D01*
X10915420Y-19724460D02*
X10896373Y-19733984D01*
X10896373Y-19733984D02*
X10858277Y-19733984D01*
X10858277Y-19733984D02*
X10839230Y-19724460D01*
X11048754Y-19733984D02*
X11029706Y-19724460D01*
X11029706Y-19724460D02*
X11020182Y-19705412D01*
X11020182Y-19705412D02*
X11020182Y-19533984D01*
X11210658Y-19733984D02*
X11210658Y-19629222D01*
X11210658Y-19629222D02*
X11201134Y-19610174D01*
X11201134Y-19610174D02*
X11182087Y-19600650D01*
X11182087Y-19600650D02*
X11143992Y-19600650D01*
X11143992Y-19600650D02*
X11124944Y-19610174D01*
X11210658Y-19724460D02*
X11191611Y-19733984D01*
X11191611Y-19733984D02*
X11143992Y-19733984D01*
X11143992Y-19733984D02*
X11124944Y-19724460D01*
X11124944Y-19724460D02*
X11115420Y-19705412D01*
X11115420Y-19705412D02*
X11115420Y-19686365D01*
X11115420Y-19686365D02*
X11124944Y-19667317D01*
X11124944Y-19667317D02*
X11143992Y-19657793D01*
X11143992Y-19657793D02*
X11191611Y-19657793D01*
X11191611Y-19657793D02*
X11210658Y-19648270D01*
X11277325Y-19600650D02*
X11353515Y-19600650D01*
X11305896Y-19533984D02*
X11305896Y-19705412D01*
X11305896Y-19705412D02*
X11315420Y-19724460D01*
X11315420Y-19724460D02*
X11334468Y-19733984D01*
X11334468Y-19733984D02*
X11353515Y-19733984D01*
X11496373Y-19724460D02*
X11477325Y-19733984D01*
X11477325Y-19733984D02*
X11439230Y-19733984D01*
X11439230Y-19733984D02*
X11420182Y-19724460D01*
X11420182Y-19724460D02*
X11410658Y-19705412D01*
X11410658Y-19705412D02*
X11410658Y-19629222D01*
X11410658Y-19629222D02*
X11420182Y-19610174D01*
X11420182Y-19610174D02*
X11439230Y-19600650D01*
X11439230Y-19600650D02*
X11477325Y-19600650D01*
X11477325Y-19600650D02*
X11496373Y-19610174D01*
X11496373Y-19610174D02*
X11505896Y-19629222D01*
X11505896Y-19629222D02*
X11505896Y-19648270D01*
X11505896Y-19648270D02*
X11410658Y-19667317D01*
X11677325Y-19733984D02*
X11677325Y-19533984D01*
X11677325Y-19724460D02*
X11658277Y-19733984D01*
X11658277Y-19733984D02*
X11620182Y-19733984D01*
X11620182Y-19733984D02*
X11601134Y-19724460D01*
X11601134Y-19724460D02*
X11591611Y-19714936D01*
X11591611Y-19714936D02*
X11582087Y-19695889D01*
X11582087Y-19695889D02*
X11582087Y-19638746D01*
X11582087Y-19638746D02*
X11591611Y-19619698D01*
X11591611Y-19619698D02*
X11601134Y-19610174D01*
X11601134Y-19610174D02*
X11620182Y-19600650D01*
X11620182Y-19600650D02*
X11658277Y-19600650D01*
X11658277Y-19600650D02*
X11677325Y-19610174D01*
X11753515Y-19810174D02*
X11763039Y-19800650D01*
X11763039Y-19800650D02*
X11782087Y-19772079D01*
X11782087Y-19772079D02*
X11791611Y-19753031D01*
X11791611Y-19753031D02*
X11801134Y-19724460D01*
X11801134Y-19724460D02*
X11810658Y-19676841D01*
X11810658Y-19676841D02*
X11810658Y-19638746D01*
X11810658Y-19638746D02*
X11801134Y-19591127D01*
X11801134Y-19591127D02*
X11791611Y-19562555D01*
X11791611Y-19562555D02*
X11782087Y-19543508D01*
X11782087Y-19543508D02*
X11763039Y-19514936D01*
X11763039Y-19514936D02*
X11753515Y-19505412D01*
M02*
